<svg version="1.1" xmlns="http://www.w3.org/2000/svg">
    <symbol viewBox="-98.5 170.29998779296875 197 59.40000915527344" id="tilde">
        <path d="M88.1 170.5c-.1.9-.3 1.7-.4 2.5-1.3 8.5-4.1 16.3-10.6 22.4-8.2 7.7-18.2 9.6-28.8 7.4-6.4-1.3-12.8-3.6-18.9-6C19.6 193-5.2 183-7.9 181.9c-11.8-4.7-23.5-9.5-36.4-10.6-11.4-1-22 1.2-31.5 8-11.3 8.2-17.5 19.6-20.2 33-1.1 5.6-1.7 11.4-2.5 17.2h10.4c.1-.9.3-1.7.4-2.5 1.3-8.5 4.1-16.3 10.6-22.4 8.2-7.7 18.2-9.6 28.8-7.4 6.4 1.3 12.8 3.6 18.9 6 9.8 3.8 34.6 13.8 37.3 14.9 11.8 4.7 23.5 9.5 36.4 10.6 11.4 1 22-1.2 31.5-8 11.3-8.1 17.5-19.5 20.2-33 1.1-5.6 1.7-11.4 2.5-17.2H88.1z"/>
    </symbol>
    <symbol viewBox="0 0 512 512" id="youtube">
        <path d="M506.703,145.655c0,0-5.297-37.959-20.303-54.731c-19.421-22.069-41.49-22.069-51.2-22.952 C363.697,62.676,256,61.793,256,61.793l0,0c0,0-107.697,0.883-179.2,6.179c-9.71,0.883-31.779,1.766-51.2,22.952 C9.71,107.697,5.297,145.655,5.297,145.655S0,190.676,0,235.697v41.49c0,45.021,5.297,89.159,5.297,89.159 s5.297,37.959,20.303,54.731c19.421,22.069,45.021,21.186,56.497,23.835C122.703,449.324,256,450.207,256,450.207 s107.697,0,179.2-6.179c9.71-0.883,31.779-1.766,51.2-22.952c15.007-16.772,20.303-54.731,20.303-54.731S512,321.324,512,277.186 v-41.49C512,190.676,506.703,145.655,506.703,145.655"/>
        <polygon fill="currentColor" points="194.207,166.841 194.207,358.4 361.931,264.828 "/>
    </symbol>
    <symbol viewBox="0 0 22.88 22.88" id="cross">
        <path d="M0.324,1.909c-0.429-0.429-0.429-1.143,0-1.587c0.444-0.429,1.143-0.429,1.587,0l9.523,9.539 l9.539-9.539c0.429-0.429,1.143-0.429,1.571,0c0.444,0.444,0.444,1.159,0,1.587l-9.523,9.524l9.523,9.539 c0.444,0.429,0.444,1.143,0,1.587c-0.429,0.429-1.143,0.429-1.571,0l-9.539-9.539l-9.523,9.539c-0.444,0.429-1.143,0.429-1.587,0 c-0.429-0.444-0.429-1.159,0-1.587l9.523-9.539L0.324,1.909z"/>
    </symbol>
    <symbol viewBox="-0.0000045299530029296875 19.699987411499023 200 162.90000915527344" id="quotes">
        <path d="M78.2 19.8L85.7 33c.8 1.4 1.7 2.9 2.7 4.5-3.9 2.3-7.7 4.7-11.5 6.9-12.7 7.3-24.2 16.2-33.4 27.8-8.9 11.2-13 24.1-14.3 38.5 4.4 0 8.6-.4 12.8.1 6.8.7 13.9 1.1 20.3 3.3 13.1 4.4 19.5 14.3 20.7 27.9.6 7.4-.5 14.4-4.2 20.9-7.8 13.6-20.5 19.7-37.3 17.5-21.8-2.6-33.5-13.5-38.7-36.3-1.2-5.3-1.9-10.7-2.8-16v-15.4c.2-.6.5-1.2.6-1.9 1-10 4-19.3 8.8-28.1 11.1-20.4 27-36.3 46.3-48.9 7.2-4.7 14.5-9.4 21.8-14.1.2.1.4.1.7.1z"/><path d="M189.4 19.8c3.5 5.8 6.9 11.6 10.6 17.8-1.7 1-3.4 2.1-5.1 3-13.4 7.8-26.3 16.1-36.8 27.9-10.7 12-15.9 26-17.4 42.3 1.4 0 2.8-.1 4.2 0 8.3.6 16.8.2 24.8 2.1 18.9 4.4 26.1 18.9 24.8 36.6-1.3 16.9-15.3 30.5-31.9 31.3-12.2.6-23.9-1.1-33.5-9.5-8.7-7.6-12.6-17.9-15.1-28.8-7.2-32.2 2.1-59.7 23.9-83.6 11-12 23.8-21.8 37.6-30.3 4.5-2.8 8.8-5.8 13.3-8.8h.6z"/>
    </symbol>
    <symbol viewBox="0 500 344 107" id="custom-hr">
        <path d="M341.2 496.2c-2.3 0-6 1.2-8.3 1.2h-121c-1.9 0-6.2-1.2-8.3-1.2-1.5 0-2.8 1.2-2.8 2.8s1.2 2.8 2.8 2.8c2.3 0 6-1.2 8.3-1.2h121c1.9 0 6.2 1.2 8.3 1.2 1.5 0 2.8-1.2 2.8-2.8s-1.2-2.8-2.8-2.8z"/><path d="M140.3 496.2c-2.3 0-6 1.2-8.3 1.2H11c-1.9 0-6.2-1.2-8.3-1.2-1.5 0-2.8 1.2-2.8 2.8s1.2 2.8 2.8 2.8c2.3 0 6-1.2 8.3-1.2h121c1.9 0 6.2 1.2 8.3 1.2 1.5 0 2.8-1.2 2.8-2.8s-1.2-2.8-2.8-2.8z"/><path d="M186.6 512.2c-12.9 0-19.7-9.3-29.5-13.6-2.3-1-5.9-3.1-5.9-.6 0 1.2 1.1.8 1.1 2.2 0 1.6-.3 2.7-2.5 2.7-2.7 0-3.7-1.3-4.1-3.1-1.1-4.7 2.7-7 6.4-7 4.7 0 10 3.6 11.7 4.8 5.4 3.7 10.6 8.1 16.7 10.7 1.6.7 4.2 1.9 5.8 1.9 1.4.2 2.7 2 .3 2z"/><path d="M153.6 487.4c12.9 0 19.7 9.3 29.5 13.6 2.3 1 5.9 3.1 5.9.6 0-1.2-1.1-.8-1.1-2.2 0-1.6.3-2.7 2.5-2.7 2.7 0 3.7 1.3 4.1 3.1 1.1 4.7-2.7 7-6.4 7-4.7 0-10-3.6-11.7-4.8-5.4-3.7-10.6-8.1-16.7-10.7-1.6-.7-4.2-1.9-5.8-1.9-1.4-.2-2.7-2-.3-2z"/>
    </symbol>
    <symbol viewBox="0 0 512 512" id="play">
        <path d="M256,0C114.617,0,0,114.615,0,256s114.617,256,256,256s256-114.615,256-256S397.383,0,256,0z M344.48,269.57l-128,80 c-2.59,1.617-5.535,2.43-8.48,2.43c-2.668,0-5.34-0.664-7.758-2.008C195.156,347.172,192,341.82,192,336V176 c0-5.82,3.156-11.172,8.242-13.992c5.086-2.836,11.305-2.664,16.238,0.422l128,80c4.676,2.93,7.52,8.055,7.52,13.57 S349.156,266.641,344.48,269.57z"/>
    </symbol>
</svg>